<?xml version="1.0" encoding="UTF-8"?>
<svg enable-background="new 0 0 500 500" version="1.1" viewBox="0 0 500 500" xml:space="preserve" xmlns="http://www.w3.org/2000/svg">
<polygon points="248.63 264.14 169.94 308.19 187.52 219.74 121.31 158.51 210.86 147.89 248.63 66 286.4 147.89 375.96 158.51 309.75 219.74 327.32 308.19" fill="#FBC329"/>
<linearGradient id="s" x1="435.94" x2="295.87" y1="283.79" y2="414.86" gradientUnits="userSpaceOnUse">
	<stop stop-color="#FBCA37" offset="2.1651e-7"/>
	<stop stop-color="#F9C138" offset=".0667"/>
	<stop stop-color="#F4A63D" offset=".2894"/>
	<stop stop-color="#F19340" offset=".5171"/>
	<stop stop-color="#EF8841" offset=".7509"/>
	<stop stop-color="#EE8442" offset="1"/>
</linearGradient>
<path d="m310.16 404.93c-2.97 0.04-5.94 0.09-8.91 0.13 23.49-8.24 91.6-35.67 129.45-106.15 11.79-21.96 17.96-43.1 21.25-60.69 0.89-1.71 1.79-3.43 2.68-5.14-2.2 24.2-8.63 47.16-19.11 68.23-33.59 67.54-98.86 94.97-125.36 103.62z" fill="url(#s)"/>
<linearGradient id="h" x1="417.97" x2="281.93" y1="262.56" y2="389.86" gradientUnits="userSpaceOnUse">
	<stop stop-color="#FBCA37" offset="2.1651e-7"/>
	<stop stop-color="#F9C138" offset=".0667"/>
	<stop stop-color="#F4A63D" offset=".2894"/>
	<stop stop-color="#F19340" offset=".5171"/>
	<stop stop-color="#EF8841" offset=".7509"/>
	<stop stop-color="#EE8442" offset="1"/>
</linearGradient>
<path d="m449.25 246.3c-2.04-5.23-7.35-20.78 0-32.29 2.52-3.96 6.32-7.1 10.76-10.76 6.22-5.14 12-8.58 16.15-10.76 0.96 2.11 7.26 16.57 0 32.29-7.86 17.01-24.95 21.09-26.91 21.52z" fill="url(#h)"/>
<linearGradient id="c" x1="450.86" x2="315.51" y1="291.94" y2="418.58" gradientUnits="userSpaceOnUse">
	<stop stop-color="#FBCA37" offset="2.1651e-7"/>
	<stop stop-color="#F9C138" offset=".0667"/>
	<stop stop-color="#F4A63D" offset=".2894"/>
	<stop stop-color="#F19340" offset=".5171"/>
	<stop stop-color="#EF8841" offset=".7509"/>
	<stop stop-color="#EE8442" offset="1"/>
</linearGradient>
<path d="m441.18 281.28c3.42-3.72 12.34-12.44 26.91-16.15 11.99-3.05 22-1.24 26.91 0-0.62 1.77-5.92 16.21-21.53 21.53-17.09 5.83-31.16-4.52-32.29-5.38z" fill="url(#c)"/>
<linearGradient id="b" x1="399.45" x2="257.43" y1="257.31" y2="390.2" gradientTransform="matrix(.9946 -.1042 .1042 .9946 -2.8599 51.256)" gradientUnits="userSpaceOnUse">
	<stop stop-color="#FBCA37" offset="2.1651e-7"/>
	<stop stop-color="#F9C138" offset=".0667"/>
	<stop stop-color="#F4A63D" offset=".2894"/>
	<stop stop-color="#F19340" offset=".5171"/>
	<stop stop-color="#EF8841" offset=".7509"/>
	<stop stop-color="#EE8442" offset="1"/>
</linearGradient>
<path d="m419.65 232.84c1.91 1.46 4.56 3.61 7.5 6.45 4.15 4.01 7.41 7.96 8.65 9.7 7.11 10.05 3.63 27.15 2.75 31.11-10.88-1.56-20.02-8.95-23.65-19.17-5.32-14.92 4.15-27.33 4.75-28.09z" fill="url(#b)"/>
<linearGradient id="a" x1="464.38" x2="344.11" y1="311.78" y2="424.32" gradientUnits="userSpaceOnUse">
	<stop stop-color="#FBCA37" offset="2.1651e-7"/>
	<stop stop-color="#F9C138" offset=".0667"/>
	<stop stop-color="#F4A63D" offset=".2894"/>
	<stop stop-color="#F19340" offset=".5171"/>
	<stop stop-color="#EF8841" offset=".7509"/>
	<stop stop-color="#EE8442" offset="1"/>
</linearGradient>
<path d="m419.65 324.34c4.49-2.64 15.07-8.07 29.6-8.07 5.21 0 17.08 0.7 29.6 8.07-5.36 11.47-16.94 18.84-29.6 18.84-12.66-0.01-24.23-7.37-29.6-18.84z" fill="url(#a)"/>
<linearGradient id="x" x1="433.81" x2="297.77" y1="274.1" y2="401.4" gradientUnits="userSpaceOnUse">
	<stop stop-color="#FBCA37" offset="2.1651e-7"/>
	<stop stop-color="#F9C138" offset=".0667"/>
	<stop stop-color="#F4A63D" offset=".2894"/>
	<stop stop-color="#F19340" offset=".5171"/>
	<stop stop-color="#EF8841" offset=".7509"/>
	<stop stop-color="#EE8442" offset="1"/>
</linearGradient>
<path d="m403.51 270.52c-8.68 11.35-10.85 25.86-5.38 37.67 4.56 9.84 12.91 14.54 16.15 16.15 1.31-1.93 10.2-15.52 5.38-32.29-3.77-13.09-13.48-19.81-16.15-21.53z" fill="url(#x)"/>
<linearGradient id="w" x1="470.89" x2="341.02" y1="316.73" y2="438.25" gradientUnits="userSpaceOnUse">
	<stop stop-color="#FBCA37" offset="2.1651e-7"/>
	<stop stop-color="#F9C138" offset=".0667"/>
	<stop stop-color="#F4A63D" offset=".2894"/>
	<stop stop-color="#F19340" offset=".5171"/>
	<stop stop-color="#EF8841" offset=".7509"/>
	<stop stop-color="#EE8442" offset="1"/>
</linearGradient>
<path d="m392.74 356.63c16.62-4.97 26.37-2.99 32.29 0 2.08 1.05 5.23 3 10.76 5.38 6.57 2.83 12.27 4.45 16.15 5.38-11.86 13.56-29.89 17.57-43.06 10.76-11.91-6.16-15.47-18.92-16.14-21.52z" fill="url(#w)"/>
<linearGradient id="v" x1="437.71" x2="304.61" y1="280.09" y2="404.63" gradientUnits="userSpaceOnUse">
	<stop stop-color="#FBCA37" offset="2.1651e-7"/>
	<stop stop-color="#F9C138" offset=".0667"/>
	<stop stop-color="#F4A63D" offset=".2894"/>
	<stop stop-color="#F19340" offset=".5171"/>
	<stop stop-color="#EF8841" offset=".7509"/>
	<stop stop-color="#EE8442" offset="1"/>
</linearGradient>
<path d="m387.36 356.63c-4.01-1.05-11.65-3.75-16.15-10.76-7.25-11.31-3.67-29.71 10.76-43.06 1.15 3.78 2.93 9.39 5.38 16.15 3.46 9.54 4.83 11.94 5.38 16.15 0.66 4.93 0.15 12.12-5.37 21.52z" fill="url(#v)"/>
<linearGradient id="u" x1="459.42" x2="348.02" y1="324.36" y2="428.59" gradientUnits="userSpaceOnUse">
	<stop stop-color="#FBCA37" offset="2.1651e-7"/>
	<stop stop-color="#F9C138" offset=".0667"/>
	<stop stop-color="#F4A63D" offset=".2894"/>
	<stop stop-color="#F19340" offset=".5171"/>
	<stop stop-color="#EF8841" offset=".7509"/>
	<stop stop-color="#EE8442" offset="1"/>
</linearGradient>
<path d="m355.07 383.54c0.56 4.25 2.52 14.29 10.76 21.53 11.79 10.36 31.64 10.8 48.44 0-2.42-2.88-5.99-6.74-10.76-10.76-3.28-2.76-9.35-7.87-16.15-10.76-12.6-5.37-25.65-2.23-32.29-0.01z" fill="url(#u)"/>
<linearGradient id="t" x1="406.49" x2="313.75" y1="300.65" y2="387.42" gradientUnits="userSpaceOnUse">
	<stop stop-color="#FBCA37" offset="2.1651e-7"/>
	<stop stop-color="#F9C138" offset=".0667"/>
	<stop stop-color="#F4A63D" offset=".2894"/>
	<stop stop-color="#F19340" offset=".5171"/>
	<stop stop-color="#EF8841" offset=".7509"/>
	<stop stop-color="#EE8442" offset="1"/>
</linearGradient>
<path d="m355.07 378.16c-10.94-2.16-19.49-10.73-21.53-21.53-1.92-10.2 2.28-20.7 10.76-26.91 1.04 2.53 2.76 6.36 5.38 10.76 5.47 9.18 9.11 11.18 10.76 16.15 1.41 4.22 1.5 10.95-5.37 21.53z" fill="url(#t)"/>
<linearGradient id="r" x1="417.08" x2="286.36" y1="269.31" y2="391.63" gradientUnits="userSpaceOnUse">
	<stop stop-color="#FBCA37" offset="2.1651e-7"/>
	<stop stop-color="#F9C138" offset=".0667"/>
	<stop stop-color="#F4A63D" offset=".2894"/>
	<stop stop-color="#F19340" offset=".5171"/>
	<stop stop-color="#EF8841" offset=".7509"/>
	<stop stop-color="#EE8442" offset="1"/>
</linearGradient>
<path d="m306.63 405.07c-3.33-2.21-12.74-9.11-16.15-21.53-4.12-15.04 2.24-32.05 16.15-43.06 1.24 3.78 3.08 9.37 5.38 16.15 4.24 12.5 4.89 13.91 5.38 16.15 1.5 6.84 0.53 17.18-10.76 32.29z" fill="url(#r)"/>
<linearGradient id="q" x1="445.23" x2="324.98" y1="319.39" y2="431.91" gradientUnits="userSpaceOnUse">
	<stop stop-color="#FBCA37" offset="2.1651e-7"/>
	<stop stop-color="#F9C138" offset=".0667"/>
	<stop stop-color="#F4A63D" offset=".2894"/>
	<stop stop-color="#F19340" offset=".5171"/>
	<stop stop-color="#EF8841" offset=".7509"/>
	<stop stop-color="#EE8442" offset="1"/>
</linearGradient>
<path d="m306.63 405.07c-0.25 1.82-2.46 19.79 10.76 32.29 11.08 10.47 28.38 12.73 43.06 5.38-2.55-3.65-6.35-9.21-10.76-16.15-6.98-10.96-7.92-13.46-10.76-16.15-4.74-4.47-13.69-8.49-32.3-5.37z" fill="url(#q)"/>
<linearGradient id="p" x1="834.71" x2="694.64" y1="283.79" y2="414.86" gradientTransform="matrix(-1 0 0 1 897.77 0)" gradientUnits="userSpaceOnUse">
	<stop stop-color="#FBCA37" offset="2.1651e-7"/>
	<stop stop-color="#F9C138" offset=".0667"/>
	<stop stop-color="#F4A63D" offset=".2894"/>
	<stop stop-color="#F19340" offset=".5171"/>
	<stop stop-color="#EF8841" offset=".7509"/>
	<stop stop-color="#EE8442" offset="1"/>
</linearGradient>
<path d="m188.84 404.93c2.97 0.04 5.94 0.09 8.91 0.13-23.49-8.24-91.6-35.67-129.45-106.15-11.79-21.96-17.96-43.1-21.25-60.69-0.89-1.71-1.79-3.43-2.68-5.14 2.2 24.2 8.63 47.16 19.11 68.23 33.59 67.54 98.86 94.97 125.36 103.62z" fill="url(#p)"/>
<linearGradient id="o" x1="816.74" x2="680.7" y1="262.56" y2="389.86" gradientTransform="matrix(-1 0 0 1 897.77 0)" gradientUnits="userSpaceOnUse">
	<stop stop-color="#FBCA37" offset="2.1651e-7"/>
	<stop stop-color="#F9C138" offset=".0667"/>
	<stop stop-color="#F4A63D" offset=".2894"/>
	<stop stop-color="#F19340" offset=".5171"/>
	<stop stop-color="#EF8841" offset=".7509"/>
	<stop stop-color="#EE8442" offset="1"/>
</linearGradient>
<path d="m49.75 246.3c2.04-5.23 7.35-20.78 0-32.29-2.52-3.96-6.32-7.1-10.76-10.76-6.22-5.14-12-8.58-16.15-10.76-0.96 2.11-7.26 16.57 0 32.29 7.86 17.01 24.95 21.09 26.91 21.52z" fill="url(#o)"/>
<linearGradient id="n" x1="849.63" x2="714.28" y1="291.94" y2="418.58" gradientTransform="matrix(-1 0 0 1 897.77 0)" gradientUnits="userSpaceOnUse">
	<stop stop-color="#FBCA37" offset="2.1651e-7"/>
	<stop stop-color="#F9C138" offset=".0667"/>
	<stop stop-color="#F4A63D" offset=".2894"/>
	<stop stop-color="#F19340" offset=".5171"/>
	<stop stop-color="#EF8841" offset=".7509"/>
	<stop stop-color="#EE8442" offset="1"/>
</linearGradient>
<path d="m57.82 281.28c-3.42-3.72-12.34-12.44-26.91-16.15-11.99-3.05-22-1.24-26.91 0 0.62 1.77 5.92 16.21 21.53 21.53 17.09 5.83 31.16-4.52 32.29-5.38z" fill="url(#n)"/>
<linearGradient id="m" x1="796.05" x2="654.03" y1="298.86" y2="431.75" gradientTransform="matrix(-.9946 -.1042 -.1042 .9946 900.63 51.256)" gradientUnits="userSpaceOnUse">
	<stop stop-color="#FBCA37" offset="2.1651e-7"/>
	<stop stop-color="#F9C138" offset=".0667"/>
	<stop stop-color="#F4A63D" offset=".2894"/>
	<stop stop-color="#F19340" offset=".5171"/>
	<stop stop-color="#EF8841" offset=".7509"/>
	<stop stop-color="#EE8442" offset="1"/>
</linearGradient>
<path d="m79.35 232.84c-1.91 1.46-4.56 3.61-7.5 6.45-4.15 4.01-7.41 7.96-8.65 9.7-7.11 10.05-3.63 27.15-2.75 31.11 10.88-1.56 20.02-8.95 23.65-19.17 5.32-14.92-4.15-27.33-4.75-28.09z" fill="url(#m)"/>
<linearGradient id="l" x1="863.15" x2="742.88" y1="311.78" y2="424.32" gradientTransform="matrix(-1 0 0 1 897.77 0)" gradientUnits="userSpaceOnUse">
	<stop stop-color="#FBCA37" offset="2.1651e-7"/>
	<stop stop-color="#F9C138" offset=".0667"/>
	<stop stop-color="#F4A63D" offset=".2894"/>
	<stop stop-color="#F19340" offset=".5171"/>
	<stop stop-color="#EF8841" offset=".7509"/>
	<stop stop-color="#EE8442" offset="1"/>
</linearGradient>
<path d="m79.35 324.34c-4.49-2.64-15.07-8.07-29.6-8.07-5.21 0-17.08 0.7-29.6 8.07 5.36 11.47 16.94 18.84 29.6 18.84s24.23-7.37 29.6-18.84z" fill="url(#l)"/>
<linearGradient id="k" x1="832.58" x2="696.54" y1="274.1" y2="401.4" gradientTransform="matrix(-1 0 0 1 897.77 0)" gradientUnits="userSpaceOnUse">
	<stop stop-color="#FBCA37" offset="2.1651e-7"/>
	<stop stop-color="#F9C138" offset=".0667"/>
	<stop stop-color="#F4A63D" offset=".2894"/>
	<stop stop-color="#F19340" offset=".5171"/>
	<stop stop-color="#EF8841" offset=".7509"/>
	<stop stop-color="#EE8442" offset="1"/>
</linearGradient>
<path d="m95.49 270.52c8.68 11.35 10.85 25.86 5.38 37.67-4.56 9.84-12.91 14.54-16.15 16.15-1.31-1.93-10.2-15.52-5.38-32.29 3.77-13.09 13.48-19.81 16.15-21.53z" fill="url(#k)"/>
<linearGradient id="j" x1="869.66" x2="739.79" y1="316.73" y2="438.25" gradientTransform="matrix(-1 0 0 1 897.77 0)" gradientUnits="userSpaceOnUse">
	<stop stop-color="#FBCA37" offset="2.1651e-7"/>
	<stop stop-color="#F9C138" offset=".0667"/>
	<stop stop-color="#F4A63D" offset=".2894"/>
	<stop stop-color="#F19340" offset=".5171"/>
	<stop stop-color="#EF8841" offset=".7509"/>
	<stop stop-color="#EE8442" offset="1"/>
</linearGradient>
<path d="m106.26 356.63c-16.62-4.97-26.37-2.99-32.29 0-2.08 1.05-5.23 3-10.76 5.38-6.57 2.83-12.27 4.45-16.15 5.38 11.86 13.56 29.89 17.57 43.06 10.76 11.91-6.16 15.47-18.92 16.14-21.52z" fill="url(#j)"/>
<linearGradient id="i" x1="836.48" x2="703.38" y1="280.09" y2="404.63" gradientTransform="matrix(-1 0 0 1 897.77 0)" gradientUnits="userSpaceOnUse">
	<stop stop-color="#FBCA37" offset="2.1651e-7"/>
	<stop stop-color="#F9C138" offset=".0667"/>
	<stop stop-color="#F4A63D" offset=".2894"/>
	<stop stop-color="#F19340" offset=".5171"/>
	<stop stop-color="#EF8841" offset=".7509"/>
	<stop stop-color="#EE8442" offset="1"/>
</linearGradient>
<path d="m111.64 356.63c4.01-1.05 11.65-3.75 16.15-10.76 7.25-11.31 3.67-29.71-10.76-43.06-1.15 3.78-2.93 9.39-5.38 16.15-3.46 9.54-4.83 11.94-5.38 16.15-0.66 4.93-0.15 12.12 5.37 21.52z" fill="url(#i)"/>
<linearGradient id="g" x1="858.19" x2="746.79" y1="324.36" y2="428.59" gradientTransform="matrix(-1 0 0 1 897.77 0)" gradientUnits="userSpaceOnUse">
	<stop stop-color="#FBCA37" offset="2.1651e-7"/>
	<stop stop-color="#F9C138" offset=".0667"/>
	<stop stop-color="#F4A63D" offset=".2894"/>
	<stop stop-color="#F19340" offset=".5171"/>
	<stop stop-color="#EF8841" offset=".7509"/>
	<stop stop-color="#EE8442" offset="1"/>
</linearGradient>
<path d="m143.93 383.54c-0.56 4.25-2.52 14.29-10.76 21.53-11.79 10.36-31.64 10.8-48.44 0 2.42-2.88 5.99-6.74 10.76-10.76 3.28-2.76 9.35-7.87 16.15-10.76 12.6-5.37 25.65-2.23 32.29-0.01z" fill="url(#g)"/>
<linearGradient id="f" x1="805.26" x2="712.52" y1="300.65" y2="387.42" gradientTransform="matrix(-1 0 0 1 897.77 0)" gradientUnits="userSpaceOnUse">
	<stop stop-color="#FBCA37" offset="2.1651e-7"/>
	<stop stop-color="#F9C138" offset=".0667"/>
	<stop stop-color="#F4A63D" offset=".2894"/>
	<stop stop-color="#F19340" offset=".5171"/>
	<stop stop-color="#EF8841" offset=".7509"/>
	<stop stop-color="#EE8442" offset="1"/>
</linearGradient>
<path d="m143.93 378.16c10.94-2.16 19.49-10.73 21.53-21.53 1.92-10.2-2.28-20.7-10.76-26.91-1.04 2.53-2.76 6.36-5.38 10.76-5.47 9.18-9.11 11.18-10.76 16.15-1.41 4.22-1.5 10.95 5.37 21.53z" fill="url(#f)"/>
<linearGradient id="e" x1="815.85" x2="685.13" y1="269.31" y2="391.63" gradientTransform="matrix(-1 0 0 1 897.77 0)" gradientUnits="userSpaceOnUse">
	<stop stop-color="#FBCA37" offset="2.1651e-7"/>
	<stop stop-color="#F9C138" offset=".0667"/>
	<stop stop-color="#F4A63D" offset=".2894"/>
	<stop stop-color="#F19340" offset=".5171"/>
	<stop stop-color="#EF8841" offset=".7509"/>
	<stop stop-color="#EE8442" offset="1"/>
</linearGradient>
<path d="m192.37 405.07c3.33-2.21 12.74-9.11 16.15-21.53 4.12-15.04-2.24-32.05-16.15-43.06-1.24 3.78-3.08 9.37-5.38 16.15-4.24 12.5-4.89 13.91-5.38 16.15-1.5 6.84-0.54 17.18 10.76 32.29z" fill="url(#e)"/>
<linearGradient id="d" x1="844" x2="723.75" y1="319.39" y2="431.91" gradientTransform="matrix(-1 0 0 1 897.77 0)" gradientUnits="userSpaceOnUse">
	<stop stop-color="#FBCA37" offset="2.1651e-7"/>
	<stop stop-color="#F9C138" offset=".0667"/>
	<stop stop-color="#F4A63D" offset=".2894"/>
	<stop stop-color="#F19340" offset=".5171"/>
	<stop stop-color="#EF8841" offset=".7509"/>
	<stop stop-color="#EE8442" offset="1"/>
</linearGradient>
<path d="m192.37 405.07c0.25 1.82 2.46 19.79-10.76 32.29-11.08 10.47-28.38 12.73-43.06 5.38 2.55-3.65 6.35-9.21 10.76-16.15 6.98-10.96 7.92-13.46 10.76-16.15 4.74-4.47 13.69-8.49 32.3-5.37z" fill="url(#d)"/>
</svg>
